<?xml version="1.0" encoding="iso-8859-1"?>
<!-- Generator: Adobe Illustrator 19.0.0, SVG Export Plug-In . SVG Version: 6.00 Build 0)  -->
<svg version="1.1" id="Layer_1" xmlns="http://www.w3.org/2000/svg" xmlns:xlink="http://www.w3.org/1999/xlink" x="0px" y="0px"
	 viewBox="0 0 650.934 650.934" style="enable-background:new 0 0 650.934 650.934;" xml:space="preserve">
<path id="XMLID_9_" style="fill:#FF4081;" d="M568.331,143.319v40.477h-40.477v-40.477H121.926v40.477H81.449v-40.477H40.972
	v364.296h40.477v-40.477h40.477v40.477h405.927v-40.477h40.477v40.477h40.477V143.319H568.331z M121.926,426.66H81.449v-40.477
	h40.477V426.66z M121.926,345.705H81.449v-40.477h40.477V345.705z M121.926,264.751H81.449v-40.477h40.477V264.751z M568.331,426.66
	h-40.477v-40.477h40.477V426.66z M568.331,345.705h-40.477v-40.477h40.477V345.705z M568.331,264.751h-40.477v-40.477h40.477
	V264.751z"/>
<g id="XMLID_1_">
	<rect id="XMLID_11_" x="163.881" y="342.336" style="fill:#303F9F;" width="323.171" height="165.279"/>
	<polygon id="XMLID_10_" style="fill:#3F51B5;" points="486.744,184.444 325.313,343.771 163.881,184.444 163.881,346.03 
		325.158,507.306 325.158,507.615 325.313,507.461 325.467,507.615 325.467,507.306 486.744,346.03 	"/>
</g>
</svg>
