<?xml version="1.0" encoding="iso-8859-1"?>
<!-- Generator: Adobe Illustrator 19.0.0, SVG Export Plug-In . SVG Version: 6.00 Build 0)  -->
<svg version="1.1" id="Layer_1" xmlns="http://www.w3.org/2000/svg" xmlns:xlink="http://www.w3.org/1999/xlink" x="0px" y="0px"
	 viewBox="0 0 604.317 604.317" style="enable-background:new 0 0 604.317 604.317;" xml:space="preserve">
<path id="XMLID_9_" style="fill:#FF4081;" d="M523.799,120.01v40.477h-40.477V120.01H119.671v40.477H79.193V120.01H38.716v364.296
	h40.477v-40.477h40.477v40.477h363.651v-40.477h40.477v40.477h40.477V120.01H523.799z M119.671,403.352H79.193v-40.477h40.477
	V403.352z M119.671,322.397H79.193V281.92h40.477V322.397z M119.671,241.442H79.193v-40.477h40.477V241.442z M523.799,403.352
	h-40.477v-40.477h40.477V403.352z M523.799,322.397h-40.477V281.92h40.477V322.397z M523.799,241.442h-40.477v-40.477h40.477
	V241.442z"/>
<g id="XMLID_1_">
	<rect id="XMLID_11_" x="161.29" y="298.784" style="fill:#303F9F;" width="281.737" height="144.089"/>
	<polygon id="XMLID_10_" style="fill:#3F51B5;" points="442.758,161.136 302.024,300.036 161.29,161.136 161.29,302.004 
		301.889,442.604 301.889,442.873 302.024,442.738 302.158,442.873 302.158,442.604 442.758,302.004 	"/>
</g>
</svg>
