<?xml version="1.0" encoding="iso-8859-1"?>
<!-- Generator: Adobe Illustrator 19.0.0, SVG Export Plug-In . SVG Version: 6.00 Build 0)  -->
<svg version="1.1" id="Layer_1" xmlns="http://www.w3.org/2000/svg" xmlns:xlink="http://www.w3.org/1999/xlink" x="0px" y="0px"
	 viewBox="0 0 689.85 689.85" style="enable-background:new 0 0 689.85 689.85;" xml:space="preserve">
<path id="XMLID_9_" style="fill:#FF4081;" d="M608.028,162.777v40.477h-40.477v-40.477H122.3v40.477H81.822v-40.477H41.345v364.296
	h40.477v-40.477H122.3v40.477h445.251v-40.477h40.477v40.477h40.477V162.777H608.028z M122.3,446.119H81.822v-40.477H122.3V446.119z
	 M122.3,365.164H81.822v-40.477H122.3V365.164z M122.3,284.209H81.822v-40.477H122.3V284.209z M608.028,446.119h-40.477v-40.477
	h40.477V446.119z M608.028,365.164h-40.477v-40.477h40.477V365.164z M608.028,284.209h-40.477v-40.477h40.477V284.209z"/>
<g id="XMLID_1_">
	<rect id="XMLID_11_" x="162.777" y="340.761" style="fill:#303F9F;" width="364.296" height="186.312"/>
	<polygon id="XMLID_10_" style="fill:#3F51B5;" points="526.726,162.777 344.751,342.38 162.777,162.777 162.777,344.925 
		344.577,526.725 344.577,527.073 344.751,526.899 344.925,527.073 344.925,526.725 526.726,344.925 	"/>
</g>
</svg>
